# xmcd
#
# Track frame offsets:
#	150
#	12108
#	27232
#	43435
#	58903
#	75753
#	90935
#	105867
#	123618
#	138381
#	153653
#	170246
#	180462
#	195915
#	208221
#	219520
#	231352
#	245286
#	259830
#	277095
#	286670
#	303845
#	314856
#
# Disc length: 4371 seconds
#
# Revision: 1
# Processed by: cddbd v1.5.2PL0 Copyright (c) Steve Scherf et al.
# Submitted via: audiograbber 1.83.01
#
DISCID=46111117
DTITLE=Erin Hay - The Collection (Greatest Hits)
DYEAR=2006
DGENRE=Country
TTITLE0=I'd Be in Memphis
TTITLE1=Leaning on a Rock That Never Rolls
TTITLE2=Midnight at the Old Soilders' Home
TTITLE3=Harper Valley P.T.A.
TTITLE4=Ten Thousand Teardrops Ago
TTITLE5=Take Me Home Country Roads
TTITLE6=Giving Old Memories Away
TTITLE7=Somebody's Angel
TTITLE8=The Tree
TTITLE9=Don't Worry 'Bout Me
TTITLE10=Farther Along
TTITLE11=If Teardrops Were Pennies
TTITLE12=The Circle
TTITLE13=False Eyelashes
TTITLE14=Walk on By
TTITLE15=My Shoes Keep Walking Back to You
TTITLE16=Tennessee Moon
TTITLE17=Honkytonk Heaven
TTITLE18=There Goes My Everything
TTITLE19=Your Good Girl's Gonna Go Bad
TTITLE20=Mirror, Mirror (On the Wall)
TTITLE21=Honkytonk Girl
TTITLE22=I Got the Blues Again
EXTD=
EXTT0=
EXTT1=
EXTT2=
EXTT3=
EXTT4=
EXTT5=
EXTT6=
EXTT7=
EXTT8=
EXTT9=
EXTT10=
EXTT11=
EXTT12=
EXTT13=
EXTT14=
EXTT15=
EXTT16=
EXTT17=
EXTT18=
EXTT19=
EXTT20=
EXTT21=
EXTT22=
PLAYORDER=
